{"accessors":[{"bufferView":2,"componentType":5126,"count":2808,"max":[9.914291381835938,12.39897632598877,2.230634927749634],"min":[-9.914291381835938,-11.966545104980469,-2.230635166168213],"type":"VEC3"},{"bufferView":2,"byteOffset":33696,"componentType":5126,"count":2808,"max":[1,1,1],"min":[-1,-1,-1],"type":"VEC3"},{"bufferView":3,"componentType":5126,"count":2808,"max":[1,0.9999786019325256,1,1],"min":[-0.9277252554893494,-0.9999786019325256,-1,-1],"type":"VEC4"},{"bufferView":1,"componentType":5126,"count":2808,"max":[0.8968204259872437,0.9876160621643066],"min":[0.10317960381507874,0.012383908033370972],"type":"VEC2"},{"bufferView":0,"componentType":5125,"count":16824,"max":[2807],"min":[0],"type":"SCALAR"},{"bufferView":2,"byteOffset":67392,"componentType":5126,"count":6942,"max":[7.6557512283325195,7.614529132843018,2.59971284866333],"min":[-7.655750751495361,-7.619528770446777,1.1409196853637695],"type":"VEC3"},{"bufferView":2,"byteOffset":150696,"componentType":5126,"count":6942,"max":[0.9977198243141174,0.9993575811386108,1],"min":[-0.997719943523407,-0.9993575215339661,-1],"type":"VEC3"},{"bufferView":3,"byteOffset":44928,"componentType":5126,"count":6942,"max":[1,0.956929624080658,0.9999802112579346,1],"min":[-0.7487727999687195,-0.9954822063446045,-0.9999802708625793,-1],"type":"VEC4"},{"bufferView":1,"byteOffset":22464,"componentType":5126,"count":6942,"max":[0.9876159429550171,0.9851497411727905],"min":[0.012383908033370972,0.01485016942024231],"type":"VEC2"},{"bufferView":0,"byteOffset":67296,"componentType":5125,"count":13116,"max":[6941],"min":[0],"type":"SCALAR"},{"bufferView":2,"byteOffset":234000,"componentType":5126,"count":9189,"max":[5.746519565582275,5.811563968658447,2.700965642929077],"min":[-5.761315822601318,-5.658001899719238,1.9304395914077759],"type":"VEC3"},{"bufferView":2,"byteOffset":344268,"componentType":5126,"count":9189,"max":[1,1,1],"min":[-0.9999997615814209,-0.9999997615814209,-1],"type":"VEC3"},{"bufferView":1,"byteOffset":78000,"componentType":5126,"count":9189,"max":[0.9752321839332581,0.9736518263816833],"min":[0.024767816066741943,0.02634817361831665],"type":"VEC2"},{"bufferView":0,"byteOffset":119760,"componentType":5125,"count":35208,"max":[9188],"min":[0],"type":"SCALAR"},{"bufferView":2,"byteOffset":454536,"componentType":5126,"count":242,"max":[-0.28925758600234985,3.2268412113189697,3.0539441108703613],"min":[-3.3215200901031494,-4.768479824066162,0.8339040875434875],"type":"VEC3"},{"bufferView":2,"byteOffset":457440,"componentType":5126,"count":242,"max":[0.9465468525886536,0.7212270498275757,0.9771136045455933],"min":[-0.9903327822685242,-0.9236971139907837,-0.9771134853363037],"type":"VEC3"},{"bufferView":3,"byteOffset":156000,"componentType":5126,"count":242,"max":[0.9990928173065186,0.9745784997940063,0.9746063947677612,1],"min":[-0.9427728652954102,-0.7128209471702576,-0.9794908165931702,1],"type":"VEC4"},{"bufferView":1,"byteOffset":151512,"componentType":5126,"count":242,"max":[0.968841016292572,0.9882083535194397],"min":[0.25452080368995667,0.011199656873941422],"type":"VEC2"},{"bufferView":0,"byteOffset":260592,"componentType":5125,"count":360,"max":[241],"min":[0],"type":"SCALAR"},{"bufferView":2,"byteOffset":460344,"componentType":5126,"count":861,"max":[6.188343048095703,6.188472270965576,2.588789463043213],"min":[-6.188345909118652,-6.18821907043457,1.182347297668457],"type":"VEC3"},{"bufferView":2,"byteOffset":470676,"componentType":5126,"count":861,"max":[1,1,0.999962329864502],"min":[-1,-1,-0.999962329864502],"type":"VEC3"},{"bufferView":3,"byteOffset":159872,"componentType":5126,"count":861,"max":[1,1,0.03924618288874626,1],"min":[-1,-1,-0.03924602270126343,1],"type":"VEC4"},{"bufferView":1,"byteOffset":153448,"componentType":5126,"count":861,"max":[0.9711037874221802,0.9711042642593384],"min":[0.02889576554298401,0.02889561653137207],"type":"VEC2"},{"bufferView":0,"byteOffset":262032,"componentType":5125,"count":4800,"max":[860],"min":[0],"type":"SCALAR"},{"bufferView":2,"byteOffset":481008,"componentType":5126,"count":121,"max":[3.4311506748199463,2.27063250541687,3.079411745071411],"min":[-3.610281229019165,-2.7201011180877686,-2.759974479675293],"type":"VEC3"},{"bufferView":2,"byteOffset":482460,"componentType":5126,"count":121,"max":[-0.2068021595478058,-0.28345149755477905,0.9364230632781982],"min":[-0.9173500537872314,-0.39532470703125,0.19029906392097473],"type":"VEC3"},{"bufferView":3,"byteOffset":173648,"componentType":5126,"count":121,"max":[0.9749958515167236,0.3658825159072876,0.9792824983596802,1],"min":[0.14989857375621796,-0.1882735937833786,0.22187960147857666,1],"type":"VEC4"},{"bufferView":1,"byteOffset":160336,"componentType":5126,"count":121,"max":[1,1],"min":[0,0],"type":"VEC2"},{"bufferView":2,"byteOffset":483912,"componentType":5126,"count":121,"max":[0.00000762939453125,0.4481797218322754,0.045760393142700195],"min":[-0.00000762939453125,-0.16230487823486328,-0.4359550476074219],"type":"VEC3"},{"bufferView":2,"byteOffset":485364,"componentType":5126,"count":121,"max":[0.17293497920036316,0.027633726596832275,0.17165464162826538],"min":[-0.0773048996925354,-0.025293678045272827,-0.08212363719940186],"type":"VEC3"},{"bufferView":2,"byteOffset":486816,"componentType":5126,"count":121,"max":[0,0.7049838304519653,0.812321662902832],"min":[-0.00000762939453125,-0.09699773788452148,-0.6832505464553833],"type":"VEC3"},{"bufferView":2,"byteOffset":488268,"componentType":5126,"count":121,"max":[0.5289111733436584,0.11768913269042969,0.2988380193710327],"min":[-0.23050200939178467,-0.05638551712036133,-0.13740628957748413],"type":"VEC3"},{"bufferView":2,"byteOffset":489720,"componentType":5126,"count":121,"max":[0,0.9449787735939026,0.9680986404418945],"min":[0,-0.37356436252593994,-0.6832504272460938],"type":"VEC3"},{"bufferView":2,"byteOffset":491172,"componentType":5126,"count":121,"max":[0.5940690636634827,0.1378912478685379,0.3856012225151062],"min":[-0.32645127177238464,-0.07465842366218567,-0.17000406980514526],"type":"VEC3"},{"bufferView":2,"byteOffset":492624,"componentType":5126,"count":121,"max":[0,0.8443646430969238,1.1388612985610962],"min":[0,-0.48251473903656006,-0.6832486391067505],"type":"VEC3"},{"bufferView":2,"byteOffset":494076,"componentType":5126,"count":121,"max":[0.6593363881111145,0.12213367223739624,0.4704318344593048],"min":[-0.3477937877178192,-0.07820767164230347,-0.187005877494812],"type":"VEC3"},{"bufferView":2,"byteOffset":495528,"componentType":5126,"count":121,"max":[0,0.637276828289032,1.0657216310501099],"min":[-0.00000762939453125,-0.7982929944992065,-0.7164621353149414],"type":"VEC3"},{"bufferView":2,"byteOffset":496980,"componentType":5126,"count":121,"max":[1.151659607887268,0.3343031704425812,0.48663583397865295],"min":[-0.3037141263484955,-0.07065922021865845,-0.20564299821853638],"type":"VEC3"},{"bufferView":2,"byteOffset":498432,"componentType":5126,"count":121,"max":[0,0.3420135974884033,0.9058895111083984],"min":[0,-0.8127197027206421,-0.5435912609100342],"type":"VEC3"},{"bufferView":2,"byteOffset":499884,"componentType":5126,"count":121,"max":[0.20599746704101562,0.035062313079833984,0.24162229895591736],"min":[-0.3022441864013672,-0.06853383779525757,-0.1694384217262268],"type":"VEC3"},{"bufferView":2,"byteOffset":501336,"componentType":5126,"count":121,"max":[0,0.09189558029174805,0.38450145721435547],"min":[0,-0.5990012884140015,-0.2859478294849396],"type":"VEC3"},{"bufferView":2,"byteOffset":502788,"componentType":5126,"count":121,"max":[0.13482064008712769,0.03700137138366699,0.17364296317100525],"min":[-0.16856326162815094,-0.04083487391471863,-0.07767456769943237],"type":"VEC3"},{"bufferView":2,"byteOffset":504240,"componentType":5126,"count":121,"max":[0,0,0],"min":[0,0,0],"type":"VEC3"},{"bufferView":2,"byteOffset":505692,"componentType":5126,"count":121,"max":[0.02281305193901062,0.028268426656723022,0.024845749139785767],"min":[-0.023602426052093506,-0.02553457021713257,-0.01966586709022522],"type":"VEC3"},{"bufferView":2,"byteOffset":507144,"componentType":5126,"count":121,"max":[0.000003814697265625,0.0000026226043701171875,0.24064087867736816],"min":[0,-0.1420992612838745,-0.30113792419433594],"type":"VEC3"},{"bufferView":2,"byteOffset":508596,"componentType":5126,"count":121,"max":[0.114321768283844,0.02678343653678894,0.10661208629608154],"min":[-0.17275777459144592,-0.0437835156917572,-0.10545003414154053],"type":"VEC3"},{"bufferView":0,"byteOffset":281232,"componentType":5125,"count":600,"max":[120],"min":[0],"type":"SCALAR"},{"bufferView":4,"componentType":5126,"count":38,"max":[1.274999976158142],"min":[0.0416666679084301],"type":"SCALAR"},{"bufferView":4,"byteOffset":152,"componentType":5126,"count":342,"max":[1],"min":[0],"type":"SCALAR"}],"animations":[{"channels":[{"sampler":0,"target":{"node":18,"path":"weights"}}],"name":"Take 001","samplers":[{"input":47,"interpolation":"LINEAR","output":48}]}],"asset":{"extras":{"author":"Lucas Quincoses Toledo (https://sketchfab.com/lucasgdclass)","license":"CC-BY-4.0 (http://creativecommons.org/licenses/by/4.0/)","source":"https://sketchfab.com/3d-models/corinthians-symbol-simbolo-do-corinthians-ac06732e97c24d34a82b0706c2f33a4c","title":"Corinthians Symbol ~ Símbolo do Corinthians"},"generator":"Sketchfab-9.36.0","version":"2.0"},"bufferViews":[{"buffer":0,"byteLength":283632,"byteOffset":0,"name":"floatBufferViews","target":34963},{"buffer":0,"byteLength":161304,"byteOffset":283632,"byteStride":8,"name":"floatBufferViews","target":34962},{"buffer":0,"byteLength":510048,"byteOffset":444936,"byteStride":12,"name":"floatBufferViews","target":34962},{"buffer":0,"byteLength":175584,"byteOffset":954984,"byteStride":16,"name":"floatBufferViews","target":34962},{"buffer":0,"byteLength":1520,"byteOffset":1130568,"name":"floatBufferViews"}],"buffers":[{"byteLength":1132088,"uri":"data:application/octet-stream;base64,"}],"images":[{"uri":"data:application/octet-stream;base64,"},{"uri":"data:application/octet-stream;base64,"},{"uri":"data:application/octet-stream;base64,"},{"uri":"data:application/octet-stream;base64,"}],"materials":[{"doubleSided":true,"emissiveFactor":[0,0,0],"name":"ancora_mat","normalTexture":{"index":1,"scale":1,"texCoord":0},"pbrMetallicRoughness":{"baseColorFactor":[0.14109978087,0.09920901730500001,0.02282183487,1],"metallicFactor":1,"metallicRoughnessTexture":{"index":0,"texCoord":0},"roughnessFactor":1}},{"doubleSided":true,"emissiveFactor":[0,0,0],"name":"corda_mat","normalTexture":{"index":1,"scale":1,"texCoord":0},"pbrMetallicRoughness":{"baseColorFactor":[1,1,1,1],"baseColorTexture":{"index":2,"texCoord":0},"metallicFactor":1,"metallicRoughnessTexture":{"index":0,"texCoord":0},"roughnessFactor":1}},{"doubleSided":true,"emissiveFactor":[0,0,0],"name":"letras_mat","pbrMetallicRoughness":{"baseColorFactor":[1,1,1,1],"baseColorTexture":{"index":2,"texCoord":0},"metallicFactor":1,"metallicRoughnessTexture":{"index":0,"texCoord":0},"roughnessFactor":1}},{"doubleSided":true,"emissiveFactor":[0,0,0],"name":"mastro_mat","normalTexture":{"index":1,"scale":1,"texCoord":0},"pbrMetallicRoughness":{"baseColorFactor":[1,1,1,1],"baseColorTexture":{"index":2,"texCoord":0},"metallicFactor":1,"metallicRoughnessTexture":{"index":0,"texCoord":0},"roughnessFactor":1}},{"doubleSided":true,"emissiveFactor":[0,0,0],"name":"boia_mat","normalTexture":{"index":1,"scale":1,"texCoord":0},"pbrMetallicRoughness":{"baseColorFactor":[0.02,0.02,0.02,1],"baseColorTexture":{"index":2,"texCoord":0},"metallicFactor":1,"metallicRoughnessTexture":{"index":0,"texCoord":0},"roughnessFactor":1}},{"doubleSided":true,"emissiveFactor":[0,0,0],"name":"bandeira_mat","normalTexture":{"index":1,"scale":1,"texCoord":0},"pbrMetallicRoughness":{"baseColorFactor":[0.15,0.15,0.15,1],"baseColorTexture":{"index":3,"texCoord":0},"metallicFactor":1,"metallicRoughnessTexture":{"index":0,"texCoord":0},"roughnessFactor":1}}],"meshes":[{"name":"ancora_e_remos_ancora_mat_0","primitives":[{"attributes":{"NORMAL":1,"POSITION":0,"TANGENT":2,"TEXCOORD_0":3},"indices":4,"material":0,"mode":4}]},{"name":"cordas_corda_mat_0","primitives":[{"attributes":{"NORMAL":6,"POSITION":5,"TANGENT":7,"TEXCOORD_0":8},"indices":9,"material":1,"mode":4}]},{"name":"letras_letras_mat_0","primitives":[{"attributes":{"NORMAL":11,"POSITION":10,"TEXCOORD_0":12},"indices":13,"material":2,"mode":4}]},{"name":"mastro_mastro_mat_0","primitives":[{"attributes":{"NORMAL":15,"POSITION":14,"TANGENT":16,"TEXCOORD_0":17},"indices":18,"material":3,"mode":4}]},{"name":"boia_boia_mat_0","primitives":[{"attributes":{"NORMAL":20,"POSITION":19,"TANGENT":21,"TEXCOORD_0":22},"indices":23,"material":4,"mode":4}]},{"name":"0","primitives":[{"attributes":{"NORMAL":25,"POSITION":24,"TANGENT":26,"TEXCOORD_0":27},"indices":46,"material":5,"mode":4,"targets":[{"NORMAL":29,"POSITION":28},{"NORMAL":31,"POSITION":30},{"NORMAL":33,"POSITION":32},{"NORMAL":35,"POSITION":34},{"NORMAL":37,"POSITION":36},{"NORMAL":39,"POSITION":38},{"NORMAL":41,"POSITION":40},{"NORMAL":43,"POSITION":42},{"NORMAL":45,"POSITION":44}]}],"weights":[0,0,0,0,0,0,0,0,0]}],"nodes":[{"children":[1],"name":"RootNode (gltf orientation matrix)","rotation":[-0.7071067811865475,0,0,0.7071067811865476]},{"children":[2],"name":"RootNode (model correction matrix)"},{"children":[3],"matrix":[1,0,0,0,0,0,1,0,0,-1,0,0,0,0,0,1],"name":"c427498a01284468bbb674bf993a8c9f.fbx"},{"children":[4],"name":""},{"children":[5,7,9,11,13,15,17],"name":"RootNode"},{"children":[6],"name":"ancora_e_remos"},{"mesh":0,"name":"ancora_e_remos_ancora_mat_0"},{"children":[8],"name":"cordas"},{"mesh":1,"name":"cordas_corda_mat_0"},{"children":[10],"name":"pCylinder1"},{"name":"transform1"},{"children":[12],"name":"letras"},{"mesh":2,"name":"letras_letras_mat_0"},{"children":[14],"name":"mastro"},{"mesh":3,"name":"mastro_mastro_mat_0"},{"children":[16],"name":"boia"},{"mesh":4,"name":"boia_boia_mat_0"},{"children":[18],"name":"bandeira","translation":[0.8915306925773621,0.2170785665512085,4.473258972167969]},{"mesh":5,"name":"0"}],"samplers":[{"magFilter":9729,"minFilter":9987,"wrapS":10497,"wrapT":10497}],"scene":0,"scenes":[{"name":"OSG_Scene","nodes":[0]}],"textures":[{"sampler":0,"source":0},{"sampler":0,"source":1},{"sampler":0,"source":2},{"sampler":0,"source":3}]}